<svg width="264" height="40" viewBox="0 0 264 40" fill="none" xmlns="http://www.w3.org/2000/svg">
<path d="M2.822 35.959C2.822 36.46 3.1 36.736 3.595 36.736H19.972C20.634 36.736 21.244 37.342 21.244 38.061C21.244 38.78 20.634 39.39 19.972 39.39H1.328C0.61 39.391 0 38.893 0 37.952V2.102C0 1.328 0.665 0.664001 1.384 0.664001C2.157 0.664001 2.822 1.328 2.822 2.102V35.959Z" fill="#3F3C3C"/>
<path d="M51.8352 1.21699C52.1112 0.608993 52.7772 0.386993 53.4402 0.386993C54.0482 0.386993 54.7682 0.607993 54.9882 1.21699L71.0332 37.343C71.3092 38.119 71.0332 38.947 70.3692 39.281C69.6492 39.557 68.8192 39.226 68.4882 38.506L53.3312 3.76099L38.2262 38.506C37.8932 39.227 37.1192 39.558 36.3992 39.281C35.7352 38.947 35.4602 38.119 35.7352 37.343L51.8352 1.21699Z" fill="#3F3C3C"/>
<path d="M99.022 38.838C98.748 39.446 98.082 39.778 97.473 39.668C96.864 39.778 96.146 39.446 95.925 38.838L80.931 2.712C80.657 1.935 80.931 1.107 81.595 0.774004C82.315 0.497004 83.201 0.829004 83.533 1.548L97.419 35.74C97.474 35.903 97.64 35.96 97.75 35.74L111.471 1.548C111.804 0.828004 112.743 0.496004 113.461 0.774004C114.071 1.107 114.403 1.935 114.071 2.712L99.022 38.838Z" fill="#3F3C3C"/>
<path d="M146.542 37.398C155.891 37.398 162.253 30.374 162.253 20.027C162.253 10.068 156.112 2.6 146.542 2.6C137.08 2.6 130.885 10.068 130.885 20.027C130.885 29.928 137.303 37.398 146.542 37.398ZM146.542 0C157.716 0 165.074 8.41 165.074 20.027C165.074 32.088 157.496 40 146.542 40C135.698 40 128.065 31.646 128.065 20.027C128.065 8.41 135.42 0 146.542 0Z" fill="#3F3C3C"/>
<path d="M191.018 22.792C191.018 22.075 191.57 21.465 192.29 21.465H196.991C204.184 21.465 207.559 17.759 207.559 12.226C207.559 6.25201 204.294 3.31901 197.82 3.31901H186.812C186.313 3.31901 186.093 3.59701 186.093 4.09501V37.953C186.093 38.726 185.428 39.391 184.655 39.391C183.991 39.391 183.327 38.726 183.327 37.953V2.93301C183.327 1.66101 184.323 0.665009 185.54 0.665009H197.768C206.121 0.665009 210.379 4.70301 210.379 12.226C210.379 18.922 206.066 24.122 197.323 24.122H196.33C195.939 24.122 195.885 24.399 196.106 24.62L208.276 36.958C208.83 37.511 208.775 38.451 208.276 39.005C207.724 39.501 206.838 39.501 206.34 38.948L192.18 24.51C191.292 23.789 191.018 23.235 191.018 22.792Z" fill="#3F3C3C"/>
<path d="M245.451 37.398C254.802 37.398 261.162 30.374 261.162 20.027C261.162 10.068 255.022 2.6 245.451 2.6C235.99 2.6 229.794 10.068 229.794 20.027C229.794 29.928 236.212 37.398 245.451 37.398ZM245.451 0C256.625 0 263.984 8.41 263.984 20.027C263.984 32.088 256.404 40 245.451 40C234.608 40 226.973 31.646 226.973 20.027C226.974 8.41 234.331 0 245.451 0Z" fill="#3F3C3C"/>
</svg>
